<?xml version="1.0" encoding="iso-8859-1"?>
<svg version="1.1" id="Layer_1" xmlns="http://www.w3.org/2000/svg" xmlns:xlink="http://www.w3.org/1999/xlink" x="0px" y="0px"
	 viewBox="0 0 24 24" enable-background="new 0 0 24 24" xml:space="preserve">
<g>
	<path fill="#303C42" d="M12,0C5.3833008,0,0,5.3833008,0,12s5.3833008,12,12,12s12-5.3833008,12-12S18.6166992,0,12,0z"/>
	<path fill="#36C2D6" d="M22.2028198,7.9094238c-2.2810059,0.0362549-4.6977539-0.1268921-7.211853-0.4989014
		c-0.0177612-0.4906616-0.171936-0.9464722-0.4338989-1.3259277c0.8486938-0.9973145,1.7288208-2.203186,2.7215576-3.730896
		C19.4989624,3.5735474,21.2490234,5.5394287,22.2028198,7.9094238z"/>
	<circle fill="#36C2D6" cx="12.5" cy="7.5" r="1.5"/>
	<path fill="#FAFBFB" d="M16.3723145,1.911499c-0.9259644,1.4191895-1.75,2.5484009-2.5395508,3.4812622
		C13.4460449,5.1472778,12.9909058,5,12.5,5c-0.1327515,0-0.260498,0.0192261-0.3877563,0.0392456
		c-0.5327759-1.3473511-1.1193237-2.6520386-1.7461548-3.9041748C10.9006958,1.0549316,11.4434204,1,12,1
		C13.5537109,1,15.0309448,1.3278198,16.3723145,1.911499z"/>
	<path fill="#36C2D6" d="M9.3526001,1.3355713c0.6575928,1.293335,1.2678833,2.6517334,1.8227539,4.0527954
		c-0.4012451,0.2526855-0.7227173,0.6147461-0.9276733,1.0458374c-2.269043-0.416626-4.8345337-0.5466919-7.3565674-0.5933838
		C4.3928223,3.6269531,6.68396,1.9987183,9.3526001,1.3355713z"/>
	<path fill="#FAFBFB" d="M1,12c0-1.8688354,0.4714355-3.6286621,1.2970581-5.1715088
		c2.6382446,0.038269,5.3540039,0.152832,7.7122803,0.5792847C10.0081787,7.4390869,10,7.4683838,10,7.5
		c0,0.5930176,0.2161865,1.1312256,0.562561,1.5603027c-2.9604492,3.7314453-5.234375,7.6696167-6.2488403,10.7944336
		C2.2721558,17.8565674,1,15.0755005,1,12z"/>
	<path fill="#36C2D6" d="M5.1326294,20.5789795c0.8968506-3.0637207,3.180542-7.0722046,6.2008057-10.8814087
		C11.6833496,9.8842163,12.0765381,10,12.5,10c0.0667114,0,0.1293945-0.0145874,0.1948242-0.0197144
		c1.0670166,2.9971924,2.9135742,6.2538452,4.7104492,9.4108276c0.3087769,0.5426636,0.609436,1.0743408,0.9069824,1.6032715
		C16.5234375,22.2536621,14.348999,23,12,23C9.4025879,23,7.0165405,22.0900879,5.1326294,20.5789795z"/>
	<path fill="#FAFBFB" d="M19.1119385,20.3768311c-0.276123-0.489624-0.5527344-0.9794312-0.8380127-1.4803467
		c-1.7637329-3.098877-3.5755615-6.2949829-4.616272-9.1940918c0.5307617-0.2802734,0.9492188-0.7388916,1.1682739-1.3032837
		c2.3377686,0.3464966,4.602356,0.5276489,6.7502441,0.5276489c0.3285522,0,0.651123-0.0089722,0.9741211-0.0171509
		C22.8383789,9.8912354,23,10.9264526,23,12C23,15.3540649,21.4866333,18.3575439,19.1119385,20.3768311z"/>
	<path opacity="0.1" fill="#010101" d="M22.550293,8.9096069c-0.322998,0.0081787-0.6455688,0.0171509-0.9741211,0.0171509
		c-0.0239868,0-0.0488892-0.0014648-0.072937-0.0015259c0.0386963,0.3745728,0.0593262,0.7544556,0.0593262,1.1390991
		c0,3.2449951-1.4208984,6.1572266-3.663269,8.1724243c0.124939,0.2200317,0.2498779,0.4405518,0.3746338,0.659729
		c0.2852783,0.5009155,0.5618896,0.9907227,0.8380127,1.4803467C21.4866333,18.3575439,23,15.3540649,23,12
		C23,10.9264526,22.8383789,9.8912354,22.550293,8.9096069z"/>
	<path opacity="0.1" fill="#010101" d="M17.114563,18.8792114c-1.8327637,1.3659058-4.0957642,2.1851196-6.552002,2.1851196
		c-1.8640137,0-3.6192017-0.4694214-5.1592407-1.2911377c-0.0952759,0.2719727-0.1948242,0.5466919-0.2706909,0.8057861
		C7.0165405,22.0900879,9.4025879,23,12,23c2.348999,0,4.5234375-0.7463379,6.3122559-2.0056152
		c-0.2975464-0.5289307-0.5982056-1.0606079-0.9069824-1.6032715C17.3084717,19.2210693,17.2114868,19.0498047,17.114563,18.8792114
		z"/>
	<path opacity="0.1" fill="#010101" d="M2.5129395,17.5361938c0.4989624,0.8499756,1.1004639,1.6331177,1.8007813,2.3185425
		c0.0631714-0.194519,0.1455078-0.4009399,0.2182617-0.6015015C3.7897949,18.7644653,3.1155396,18.1849365,2.5129395,17.5361938z"/>
	<path opacity="0.1" fill="#010101" d="M20.0568848,4.5358887c0.602356,1.0302124,1.0487061,2.161377,1.2901001,3.3684692
		c0.2852783,0.0015869,0.574646,0.0095215,0.855835,0.0050659C21.6970215,6.6525879,20.9619751,5.5144653,20.0568848,4.5358887z"/>
	<linearGradient id="SVGID_1_" gradientUnits="userSpaceOnUse" x1="1.1249185" y1="6.9288664" x2="22.875082" y2="17.0711346">
		<stop  offset="0" style="stop-color:#FFFFFF;stop-opacity:0.2"/>
		<stop  offset="1" style="stop-color:#FFFFFF;stop-opacity:0"/>
	</linearGradient>
	<path fill="url(#SVGID_1_)" d="M12,0C5.3833008,0,0,5.3833008,0,12s5.3833008,12,12,12s12-5.3833008,12-12S18.6166992,0,12,0z"/>
</g>
<g>
</g>
<g>
</g>
<g>
</g>
<g>
</g>
<g>
</g>
<g>
</g>
<g>
</g>
<g>
</g>
<g>
</g>
<g>
</g>
<g>
</g>
<g>
</g>
<g>
</g>
<g>
</g>
<g>
</g>
</svg>
