<?xml version="1.0" encoding="iso-8859-1"?>
<svg version="1.1" id="Layer_1" xmlns="http://www.w3.org/2000/svg" xmlns:xlink="http://www.w3.org/1999/xlink" x="0px" y="0px"
	 viewBox="0 0 24 24" enable-background="new 0 0 24 24" xml:space="preserve">
<g>
	<path fill="#303C42" d="M12,0C5.3828125,0,0,5.3833008,0,12s5.3828125,12,12,12s12-5.3833008,12-12S18.6171875,0,12,0z"/>
	<path fill="#5C6771" d="M23,12c0,0.5629883-0.0559082,1.1118774-0.1378784,1.6523438l-1.0681763-0.6166992
		c-0.4609375-0.2666016-1-0.3359375-1.5175781-0.199707c-0.515625,0.1381836-0.9472656,0.4692383-1.2138805,0.9321289l-2,3.4638672
		c-0.5507679,0.9545898-0.2226429,2.1801758,0.7314587,2.7324219l1.0698242,0.6173096
		C18.0049438,21.2698975,17.0405884,21.8278809,16,22.2360229V21c0-1.1030273-0.8974609-2-2-2h-4c-1.1025391,0-2,0.8969727-2,2
		v1.2360229c-1.0406494-0.4081421-2.0050659-0.9660645-2.8638916-1.6544189l1.0699463-0.6177368
		c0.9541016-0.5517578,1.2822266-1.7773438,0.7314329-2.7319336l-2-3.4638672
		c-0.2665892-0.4628906-0.6982298-0.7939453-1.2138548-0.9321289c-0.5175781-0.1367188-1.0556641-0.0668945-1.5175781,0.199707
		l-1.0681763,0.6166992C1.0559082,13.1118774,1,12.5629883,1,12s0.0559082-1.1118774,0.1378784-1.6523438l1.0681763,0.6166992
		c0.3076172,0.1777344,0.6494141,0.2685547,0.9960938,0.2685547c0.1738281,0,0.3486328-0.0229492,0.5214844-0.0688477
		c0.515625-0.1381836,0.9472656-0.4692383,1.2138548-0.9321289l2-3.4638672
		c0.5507936-0.9545898,0.2226686-2.1801758-0.7314329-2.7324219L5.1362305,3.418335
		C5.9950562,2.7301025,6.9594116,2.1721191,8,1.7639771V3c0,1.1030273,0.8974609,2,2,2h4c1.1025391,0,2-0.8969727,2-2V1.7639771
		c1.0406494,0.4081421,2.0050659,0.9660645,2.8638916,1.6544189l-1.0699463,0.6177368
		c-0.9541016,0.5517578-1.2822266,1.7773438-0.7314587,2.7319336l2,3.4638672
		c0.2666149,0.4628906,0.6982555,0.7939453,1.2138805,0.9321289c0.1728516,0.0458984,0.3476563,0.0688477,0.5214844,0.0688477
		c0.3466797,0,0.6884766-0.0908203,0.9960938-0.2685547l1.0681763-0.6166992C22.9440918,10.8881226,23,11.4370117,23,12z"/>
	<path fill="#FFFFFF" d="M22.6541748,9.3128662l-1.3602295,0.7852783c-0.2324219,0.1333008-0.4990234,0.1679688-0.7587891,0.1000977
		c-0.2578125-0.0693359-0.4736328-0.2348633-0.6074219-0.4663086l-1.9990234-3.4638672
		c-0.2763672-0.4775391-0.1113281-1.090332,0.3652344-1.3662109l1.3608398-0.7852783
		C21.0955811,5.5159302,22.1473999,7.3057251,22.6541748,9.3128662z"/>
	<circle fill="#303C42" cx="12" cy="12" r="6"/>
	<circle fill="#FFCB29" cx="12" cy="12" r="5"/>
	<path fill="#303C42" d="M11.75,10h1.75c0.2763672,0,0.5-0.2236328,0.5-0.5S13.7763672,9,13.5,9h-1V8.5
		C12.5,8.2236328,12.2763672,8,12,8s-0.5,0.2236328-0.5,0.5v0.5252686C10.6541138,9.1478271,10,9.8707275,10,10.75
		c0,0.9648438,0.7851563,1.75,1.75,1.75h0.5c0.4130859,0,0.75,0.3364258,0.75,0.75S12.6630859,14,12.25,14H10.5
		c-0.2763672,0-0.5,0.2236328-0.5,0.5s0.2236328,0.5,0.5,0.5h1v0.5c0,0.2763672,0.2236328,0.5,0.5,0.5s0.5-0.2236328,0.5-0.5
		v-0.5252686C13.3458862,14.8521729,14,14.1292725,14,13.25c0-0.9648438-0.7851563-1.75-1.75-1.75h-0.5
		c-0.4130859,0-0.75-0.3364258-0.75-0.75S11.3369141,10,11.75,10z"/>
	<path fill="#FFFFFF" d="M15,1.4264526V3c0,0.5512695-0.4482422,1-1,1h-4C9.4482422,4,9,3.5512695,9,3V1.4264526
		C9.9551392,1.1549683,10.9589844,1,12,1S14.0448608,1.1549683,15,1.4264526z"/>
	<path fill="#FFFFFF" d="M19.6547241,19.8834229l-1.3607788-0.78479c-0.4765625-0.2763672-0.6416016-0.8891602-0.3662109-1.3666992
		l2.0009766-3.4638672c0.1328125-0.2314453,0.3486328-0.3969727,0.6064453-0.4663086
		c0.2607422-0.0683594,0.5273304-0.0336914,0.7587891,0.1000977l1.3602295,0.7852783
		C22.1473999,16.6943359,21.0955811,18.4840698,19.6547241,19.8834229z"/>
	<path fill="#FFFFFF" d="M4.3452759,4.1165771l1.3607788,0.78479c0.4765625,0.2763672,0.6416016,0.8891602,0.3662109,1.3666992
		L4.0712891,9.7319336c-0.1328125,0.2314453-0.3486328,0.3969727-0.6064453,0.4663086
		c-0.2587891,0.0693359-0.5263672,0.0336914-0.7587891-0.1000977L1.3458252,9.3128662
		C1.8526001,7.3056641,2.9044189,5.5159302,4.3452759,4.1165771z"/>
	<path fill="#FFFFFF" d="M1.3458252,14.6871338l1.3602295-0.7852783c0.2314332-0.1342773,0.4990234-0.1699219,0.7587891-0.1000977
		c0.2578125,0.0693359,0.4736328,0.2348633,0.6074219,0.4663086l1.9990234,3.4638672
		c0.2763672,0.4775391,0.1113281,1.090332-0.3652344,1.3662109l-1.3608398,0.7852783
		C2.9044189,18.4840698,1.8526001,16.6942749,1.3458252,14.6871338z"/>
	<path fill="#FFFFFF" d="M9,22.5735474V21c0-0.5512695,0.4482422-1,1-1h4c0.5517578,0,1,0.4487305,1,1v1.5735474
		C14.0448608,22.8450317,13.0410156,23,12,23S9.9551392,22.8450317,9,22.5735474z"/>
	<linearGradient id="SVGID_1_" gradientUnits="userSpaceOnUse" x1="12.01091" y1="12.0121613" x2="19.7220917" y2="19.7233429">
		<stop  offset="0" style="stop-color:#010101;stop-opacity:0.1"/>
		<stop  offset="1" style="stop-color:#010101;stop-opacity:0"/>
	</linearGradient>
	<path fill="url(#SVGID_1_)" d="M16.2767334,7.7988892C17.3410034,8.8821411,18,10.3649292,18,12c0,3.3085938-2.6914063,6-6,6
		c-1.6484375,0-3.1431274-0.6686401-4.2286377-1.748291L10.5196533,19H14c1.1025391,0,2,0.8969727,2,2v1.2360229
		c1.0405884-0.4081421,2.0049438-0.9661255,2.8637695-1.6543579l-1.0698242-0.6173096
		c-0.9541016-0.5522461-1.2822266-1.777832-0.7314587-2.7324219l2-3.4638672
		c0.2666149-0.4628906,0.6982555-0.7939453,1.2138805-0.9321289c0.3505249-0.0922852,0.7092896-0.0825195,1.048645,0.0112305
		L16.2767334,7.7988892z"/>
	<linearGradient id="SVGID_2_" gradientUnits="userSpaceOnUse" x1="1.1248534" y1="6.9288359" x2="22.8751469" y2="17.0711651">
		<stop  offset="0" style="stop-color:#FFFFFF;stop-opacity:0.2"/>
		<stop  offset="1" style="stop-color:#FFFFFF;stop-opacity:0"/>
	</linearGradient>
	<path fill="url(#SVGID_2_)" d="M12,0C5.3828125,0,0,5.3833008,0,12s5.3828125,12,12,12s12-5.3833008,12-12S18.6171875,0,12,0z"/>
</g>
<g>
</g>
<g>
</g>
<g>
</g>
<g>
</g>
<g>
</g>
<g>
</g>
<g>
</g>
<g>
</g>
<g>
</g>
<g>
</g>
<g>
</g>
<g>
</g>
<g>
</g>
<g>
</g>
<g>
</g>
</svg>
