<?xml version="1.0" encoding="iso-8859-1"?>
<!-- Generator: Adobe Illustrator 21.1.0, SVG Export Plug-In . SVG Version: 6.00 Build 0)  -->
<svg version="1.1" id="Layer_1" xmlns="http://www.w3.org/2000/svg" xmlns:xlink="http://www.w3.org/1999/xlink" x="0px" y="0px"
	 viewBox="0 0 24 24" enable-background="new 0 0 24 24" xml:space="preserve">
<g>
	<path fill="#303C42" d="M21,10c0-3.3427734-1.8955078-9-9-9c-0.1328125,0-0.2597656,0.0527344-0.3535156,0.1464844
		l-0.3554688,0.3554688C3.8134766,1.6083984,3,7.4677734,3,10c0,1.1296387,0.262207,2.2357178,0.4165039,2.7893677
		C3.0615234,13.3307495,3,13.9825439,3,14.5c0,0.9580078,0.8886719,3.1035156,2.1494141,3.4521484
		c0.0126953,0.03125,0.0263672,0.0644531,0.0400391,0.0986328C5.734375,19.4042969,7.1826172,23,12,23
		s6.265625-3.5957031,6.8105469-4.9492188c0.0136719-0.0341797,0.0273438-0.0673828,0.0400391-0.0986328
		C20.1113281,17.6035156,21,15.4580078,21,14.5c0-0.5175171-0.0615234-1.1693726-0.416626-1.7108154
		C20.7376099,12.2344971,21,11.1266479,21,10z"/>
	<path fill="#6D4D42" d="M11.5,2.5c0.1328125,0,0.2597656-0.0527344,0.3535156-0.1464844l0.3515625-0.3515625
		C19.9111328,2.1337891,20,9.6757813,20,10c0,0.5537109-0.0722656,1.109375-0.1611404,1.5800781
		C18.9638596,7.9775391,15.6601563,6,13.5,6c-0.1083984,0-0.2138672,0.0351563-0.2998047,0.0996094
		C13.1816406,6.1142578,11.3066406,7.5,9,7.5c-2.7265625,0-4.3730469,2.2460938-4.8525391,4.0068359
		C4.0654297,11.0527344,4,10.5263672,4,10C4,7.1992188,4.9746094,2.5,11.5,2.5z"/>
	<path opacity="0.2" fill="#FFFFFF" d="M11.5,3.4970093c0.1328125,0,0.2597656-0.0527344,0.3535156-0.1464844l0.3515625-0.3515625
		c6.6399536,0.1135864,7.6221924,5.7189941,7.7675171,7.4779053C19.9833984,10.3178711,20,10.1607666,20,10
		c0-0.3242188-0.0888672-7.8662109-7.7949219-7.9980469l-0.3515625,0.3515625C11.7597656,2.4472656,11.6328125,2.5,11.5,2.5
		C4.9746094,2.5,4,7.1992188,4,10c0,0.1195679,0.0133667,0.2359009,0.0195313,0.3546143
		C4.1737671,7.5338745,5.4503174,3.4970093,11.5,3.4970093z"/>
	<path fill="#FEE7D4" d="M18.9838867,12.447937c-0.5290527,1.489502-1.8504028,3.2941895-3.4086914,4.6702271
		C15.1230469,16.4296875,14.3544922,16,13.5,16h-3c-0.8544922,0-1.6230469,0.4296875-2.0751953,1.1181641
		c-1.5681152-1.3847046-2.897583-3.2040405-3.4198608-4.6988525C5.0568848,11.0413818,6.4606934,8.5,9,8.5
		c2.2695313,0,4.1240234-1.1367188,4.6513672-1.4951172C15.3085938,7.102478,18.461731,8.7648315,18.9838867,12.447937z"/>
	<path opacity="0.1" fill="#010101" d="M9.0522461,9.4899902c2.2991943,0,4.1779175-1.0061035,4.7121582-1.3233643
		c1.4909668,0.0767212,4.1727905,1.2491455,5.1259766,3.7930908c-0.7197266-3.3390503-3.6575928-4.8616943-5.2390137-4.954834
		C13.1240234,7.3632813,11.2695313,8.5,9,8.5c-2.5393066,0-3.9431152,2.5413818-3.9950562,3.9193115
		c0.0179443,0.0513306,0.0440674,0.1057129,0.0639038,0.1577759C5.3515625,11.3230591,6.7258301,9.4899902,9.0522461,9.4899902z"/>
	<path fill="#FEE7D4" d="M4.0504761,13.8898315c0.0319824,0.4642944,0.0844116,0.9891968,0.1692505,1.510376
		C4.0880127,15.0614014,4,14.734375,4,14.5C4,14.2585449,4.0193481,14.0606689,4.0504761,13.8898315z"/>
	<path fill="#6D4D42" d="M17.8828125,17.6777344C17.3623047,18.9707031,16.1425781,22,12,22
		s-5.3623047-3.0292969-5.8828125-4.3222656c-0.0654297-0.1640625-0.1201172-0.2988281-0.1669922-0.3945313
		c-0.0247803-0.0516357-0.0708008-0.0841064-0.1100464-0.1233521l0.0133667-0.0133667
		c-0.3398438-0.3398438-0.5634766-1.2607422-0.6962891-2.265625c0.8183594,1.234375,1.9296875,2.4677734,3.1269531,3.4267578
		c0.1298828,0.1035156,0.3007813,0.1376953,0.4599609,0.0869141c0.1582031-0.0488281,0.2822266-0.1728516,0.3300781-0.3310547
		C9.2695313,17.4277344,9.8427734,17,10.5,17h3c0.6572266,0,1.2304688,0.4277344,1.4257813,1.0634766
		c0.0478516,0.1582031,0.171875,0.2822266,0.3300781,0.3310547c0.0488281,0.015625,0.0976563,0.0224609,0.1474609,0.0224609
		c0.1123047,0,0.2226563-0.0380859,0.3125-0.109375c1.1972656-0.9589844,2.3085938-2.1923828,3.1269531-3.4267578
		c-0.1328125,1.0048828-0.3564453,1.9257813-0.6962891,2.265625l0.0133667,0.0133667
		c-0.0392456,0.0392456-0.0852661,0.0717163-0.1100464,0.1233521
		C18.0029297,17.3789063,17.9482422,17.5136719,17.8828125,17.6777344z"/>
	<path opacity="0.1" fill="#010101" d="M18.7168579,15.0552368c-0.1342773,0.6807861-0.3204346,1.2475586-0.5703735,1.4974976
		l0.0133667,0.0133667c-0.0392456,0.0392456-0.0852661,0.0717163-0.1100464,0.1233521
		c-0.046875,0.0957031-0.1015625,0.2304688-0.1669922,0.3945313C17.3623047,18.3769531,16.1425781,21.40625,12,21.40625
		s-5.3623047-3.0292969-5.8828125-4.3222656c-0.0654297-0.1640625-0.1201172-0.2988281-0.1669922-0.3945313
		c-0.0247803-0.0516357-0.0708008-0.0841064-0.1100464-0.1233521l0.0133667-0.0133667
		c-0.249939-0.249939-0.4359741-0.8166504-0.5702515-1.4973755c-0.0400391-0.0584106-0.0872803-0.1160889-0.1260376-0.1744995
		c0.1328125,1.0048828,0.3564453,1.9257813,0.6962891,2.265625l-0.0133667,0.0133667
		c0.0392456,0.0392456,0.0852661,0.0717163,0.1100464,0.1233521c0.046875,0.0957031,0.1015625,0.2304688,0.1669922,0.3945313
		C6.6376953,18.9707031,7.8574219,22,12,22s5.3623047-3.0292969,5.8828125-4.3222656
		c0.0654297-0.1640625,0.1201172-0.2988281,0.1669922-0.3945313c0.0247803-0.0516357,0.0708008-0.0841064,0.1100464-0.1233521
		l-0.0133667-0.0133667c0.3398438-0.3398438,0.5634766-1.2607422,0.6962891-2.265625
		C18.8040771,14.93927,18.756897,14.9968872,18.7168579,15.0552368z"/>
	<path fill="#FEE7D4" d="M19.7802734,15.4002075c0.0848389-0.5211792,0.1372681-1.0460815,0.1692505-1.510376
		C19.9806519,14.0606689,20,14.2585449,20,14.5C20,14.734375,19.9119873,15.0614014,19.7802734,15.4002075z"/>
	<circle fill="#303C42" cx="8.5" cy="13" r="1"/>
	<circle fill="#303C42" cx="15.5" cy="13" r="1"/>
	<path fill="#303C42" d="M13,18h-2c-0.2763672,0-0.5,0.2236328-0.5,0.5S10.7236328,19,11,19h2c0.2763672,0,0.5-0.2236328,0.5-0.5
		S13.2763672,18,13,18z"/>
	<linearGradient id="SVGID_1_" gradientUnits="userSpaceOnUse" x1="2.9681256" y1="7.6422768" x2="20.6696644" y2="15.8966408">
		<stop  offset="0" style="stop-color:#FFFFFF;stop-opacity:0.2"/>
		<stop  offset="1" style="stop-color:#FFFFFF;stop-opacity:0"/>
	</linearGradient>
	<path fill="url(#SVGID_1_)" d="M21,10c0-3.3427734-1.8955078-9-9-9c-0.1328125,0-0.2597656,0.0527344-0.3535156,0.1464844
		l-0.3554688,0.3554688C3.8134766,1.6083984,3,7.4677734,3,10c0,1.1296387,0.262207,2.2357178,0.4165039,2.7893677
		C3.0615234,13.3307495,3,13.9825439,3,14.5c0,0.9580078,0.8886719,3.1035156,2.1494141,3.4521484
		c0.0126953,0.03125,0.0263672,0.0644531,0.0400391,0.0986328C5.734375,19.4042969,7.1826172,23,12,23
		s6.265625-3.5957031,6.8105469-4.9492188c0.0136719-0.0341797,0.0273438-0.0673828,0.0400391-0.0986328
		C20.1113281,17.6035156,21,15.4580078,21,14.5c0-0.5175171-0.0615234-1.1693726-0.416626-1.7108154
		C20.7376099,12.2344971,21,11.1266479,21,10z"/>
</g>
<g>
</g>
<g>
</g>
<g>
</g>
<g>
</g>
<g>
</g>
<g>
</g>
<g>
</g>
<g>
</g>
<g>
</g>
<g>
</g>
<g>
</g>
<g>
</g>
<g>
</g>
<g>
</g>
<g>
</g>
</svg>
