<?xml version="1.0" encoding="UTF-8"?>
<svg version="1.1" viewBox="0 0 24 24" xmlns="http://www.w3.org/2000/svg" xmlns:xlink="http://www.w3.org/1999/xlink">
    <!--Generated by IJSVG (https://github.com/curthard89/IJSVG)-->
    <defs>
        <linearGradient id="a" x1="-0.707615" x2="24.7076" gradientUnits="userSpaceOnUse" y1="6.07434" y2="17.9257">
            <stop offset="0%" stop-color="#FEFEFE" stop-opacity="0.20"></stop>
            <stop offset="100%" stop-color="#FEFEFE" stop-opacity="0"></stop>
        </linearGradient>
    </defs>
    <g fill="#303C42">
        <path d="M22,3h-1.5c-0.276367,0 -0.5,0.223633 -0.5,0.5c0,0.276367 0.223633,0.5 0.5,0.5h1.5c0.551758,0 1,0.44873 1,1v1.5c0,0.276367 0.223633,0.5 0.5,0.5c0.276367,0 0.5,-0.223633 0.5,-0.5v-1.5c0,-1.10303 -0.897461,-2 -2,-2Z"></path>
        <path d="M0.5,7c0.276367,0 0.5,-0.223633 0.5,-0.5v-1.5c0,-0.55127 0.448242,-1 1,-1h1.5c0.276367,0 0.5,-0.223633 0.5,-0.5c0,-0.276367 -0.223633,-0.5 -0.5,-0.5h-1.5c-1.10254,0 -2,0.896973 -2,2v1.5c0,0.276367 0.223633,0.5 0.5,0.5Z"></path>
        <path d="M23.5,17c-0.276367,0 -0.5,0.223633 -0.5,0.5v1.5c0,0.55127 -0.448242,1 -1,1h-1.5c-0.276367,0 -0.5,0.223633 -0.5,0.5c0,0.276367 0.223633,0.5 0.5,0.5h1.5c1.10254,0 2,-0.896973 2,-2v-1.5c0,-0.276367 -0.223633,-0.5 -0.5,-0.5Z"></path>
        <path d="M3.5,20h-1.5c-0.551758,0 -1,-0.44873 -1,-1v-1.5c0,-0.276367 -0.223633,-0.5 -0.5,-0.5c-0.276367,0 -0.5,0.223633 -0.5,0.5v1.5c0,1.10303 0.897461,2 2,2h1.5c0.276367,0 0.5,-0.223633 0.5,-0.5c0,-0.276367 -0.223633,-0.5 -0.5,-0.5Z"></path>
        <path d="M3.5,6c-0.276367,0 -0.5,0.223633 -0.5,0.5v11c0,0.276367 0.223633,0.5 0.5,0.5c0.276367,0 0.5,-0.223633 0.5,-0.5v-11c0,-0.276367 -0.223633,-0.5 -0.5,-0.5Z"></path>
        <path d="M13.5,6c-0.276367,0 -0.5,0.223633 -0.5,0.5v11c0,0.276367 0.223633,0.5 0.5,0.5c0.276367,0 0.5,-0.223633 0.5,-0.5v-11c0,-0.276367 -0.223633,-0.5 -0.5,-0.5Z"></path>
        <path d="M20.5,6c-0.276367,0 -0.5,0.223633 -0.5,0.5v11c0,0.276367 0.223633,0.5 0.5,0.5c0.276367,0 0.5,-0.223633 0.5,-0.5v-11c0,-0.276367 -0.223633,-0.5 -0.5,-0.5Z"></path>
        <path d="M6.5,6c-0.276367,0 -0.5,0.223633 -0.5,0.5v8c0,0.276367 0.223633,0.5 0.5,0.5c0.276367,0 0.5,-0.223633 0.5,-0.5v-8c0,-0.276367 -0.223633,-0.5 -0.5,-0.5Z"></path>
        <path d="M8.5,6c-0.276367,0 -0.5,0.223633 -0.5,0.5v8c0,0.276367 0.223633,0.5 0.5,0.5c0.276367,0 0.5,-0.223633 0.5,-0.5v-8c0,-0.276367 -0.223633,-0.5 -0.5,-0.5Z"></path>
        <path d="M10.5,6c-0.276367,0 -0.5,0.223633 -0.5,0.5v8c0,0.276367 0.223633,0.5 0.5,0.5c0.276367,0 0.5,-0.223633 0.5,-0.5v-8c0,-0.276367 -0.223633,-0.5 -0.5,-0.5Z"></path>
        <path d="M15.5,6c-0.276367,0 -0.5,0.223633 -0.5,0.5v8c0,0.276367 0.223633,0.5 0.5,0.5c0.276367,0 0.5,-0.223633 0.5,-0.5v-8c0,-0.276367 -0.223633,-0.5 -0.5,-0.5Z"></path>
        <path d="M18.5,6c-0.276367,0 -0.5,0.223633 -0.5,0.5v8c0,0.276367 0.223633,0.5 0.5,0.5c0.276367,0 0.5,-0.223633 0.5,-0.5v-8c0,-0.276367 -0.223633,-0.5 -0.5,-0.5Z"></path>
        <path d="M18.5,16c-0.276367,0 -0.5,0.223633 -0.5,0.5v1c0,0.276367 0.223633,0.5 0.5,0.5c0.276367,0 0.5,-0.223633 0.5,-0.5v-1c0,-0.276367 -0.223633,-0.5 -0.5,-0.5Z"></path>
        <path d="M15.5,16c-0.276367,0 -0.5,0.223633 -0.5,0.5v1c0,0.276367 0.223633,0.5 0.5,0.5c0.276367,0 0.5,-0.223633 0.5,-0.5v-1c0,-0.276367 -0.223633,-0.5 -0.5,-0.5Z"></path>
        <path d="M10.5,16c-0.276367,0 -0.5,0.223633 -0.5,0.5v1c0,0.276367 0.223633,0.5 0.5,0.5c0.276367,0 0.5,-0.223633 0.5,-0.5v-1c0,-0.276367 -0.223633,-0.5 -0.5,-0.5Z"></path>
        <path d="M8.5,16c-0.276367,0 -0.5,0.223633 -0.5,0.5v1c0,0.276367 0.223633,0.5 0.5,0.5c0.276367,0 0.5,-0.223633 0.5,-0.5v-1c0,-0.276367 -0.223633,-0.5 -0.5,-0.5Z"></path>
        <path d="M6.5,16c-0.276367,0 -0.5,0.223633 -0.5,0.5v1c0,0.276367 0.223633,0.5 0.5,0.5c0.276367,0 0.5,-0.223633 0.5,-0.5v-1c0,-0.276367 -0.223633,-0.5 -0.5,-0.5Z"></path>
    </g>
    <path fill="#D32E2E" d="M23.5,11h-23c-0.276367,0 -0.5,0.223633 -0.5,0.5c0,0.276367 0.223633,0.5 0.5,0.5h23c0.276367,0 0.5,-0.223633 0.5,-0.5c0,-0.276367 -0.223633,-0.5 -0.5,-0.5Z"></path>
    <path d="M6.5,16c-0.276367,0 -0.5,0.223633 -0.5,0.5v1c0,0.276367 0.223633,0.5 0.5,0.5c0.276367,0 0.5,-0.223633 0.5,-0.5v-1c0,-0.276367 -0.223633,-0.5 -0.5,-0.5Zm2,0c-0.276367,0 -0.5,0.223633 -0.5,0.5v1c0,0.276367 0.223633,0.5 0.5,0.5c0.276367,0 0.5,-0.223633 0.5,-0.5v-1c0,-0.276367 -0.223633,-0.5 -0.5,-0.5Zm2,0c-0.276367,0 -0.5,0.223633 -0.5,0.5v1c0,0.276367 0.223633,0.5 0.5,0.5c0.276367,0 0.5,-0.223633 0.5,-0.5v-1c0,-0.276367 -0.223633,-0.5 -0.5,-0.5Zm-7,4h-1.5c-0.551758,0 -1,-0.44873 -1,-1v-1.5c0,-0.276367 -0.223633,-0.5 -0.5,-0.5c-0.276367,0 -0.5,0.223633 -0.5,0.5v1.5c0,1.10303 0.897461,2 2,2h1.5c0.276367,0 0.5,-0.223633 0.5,-0.5c0,-0.276367 -0.223633,-0.5 -0.5,-0.5Zm-3,-13c0.276367,0 0.5,-0.223633 0.5,-0.5v-1.5c0,-0.55127 0.448242,-1 1,-1h1.5c0.276367,0 0.5,-0.223633 0.5,-0.5c0,-0.276367 -0.223633,-0.5 -0.5,-0.5h-1.5c-1.10254,0 -2,0.896973 -2,2v1.5c0,0.276367 0.223633,0.5 0.5,0.5Zm23,4h-2.5v-4.5c0,-0.276367 -0.223633,-0.5 -0.5,-0.5c-0.276367,0 -0.5,0.223633 -0.5,0.5v4.5h-1v-4.5c0,-0.276367 -0.223633,-0.5 -0.5,-0.5c-0.276367,0 -0.5,0.223633 -0.5,0.5v4.5h-2v-4.5c0,-0.276367 -0.223633,-0.5 -0.5,-0.5c-0.276367,0 -0.5,0.223633 -0.5,0.5v4.5h-1v-4.5c0,-0.276367 -0.223633,-0.5 -0.5,-0.5c-0.276367,0 -0.5,0.223633 -0.5,0.5v4.5h-2v-4.5c0,-0.276367 -0.223633,-0.5 -0.5,-0.5c-0.276367,0 -0.5,0.223633 -0.5,0.5v4.5h-1v-4.5c0,-0.276367 -0.223633,-0.5 -0.5,-0.5c-0.276367,0 -0.5,0.223633 -0.5,0.5v4.5h-1v-4.5c0,-0.276367 -0.223633,-0.5 -0.5,-0.5c-0.276367,0 -0.5,0.223633 -0.5,0.5v4.5h-2v-4.5c0,-0.276367 -0.223633,-0.5 -0.5,-0.5c-0.276367,0 -0.5,0.223633 -0.5,0.5v4.5h-2.5c-0.276367,0 -0.5,0.223633 -0.5,0.5c0,0.276367 0.223633,0.5 0.5,0.5h2.5v5.5c0,0.276367 0.223633,0.5 0.5,0.5c0.276367,0 0.5,-0.223633 0.5,-0.5v-5.5h2v2.5c0,0.276367 0.223633,0.5 0.5,0.5c0.276367,0 0.5,-0.223633 0.5,-0.5v-2.5h1v2.5c0,0.276367 0.223633,0.5 0.5,0.5c0.276367,0 0.5,-0.223633 0.5,-0.5v-2.5h1v2.5c0,0.276367 0.223633,0.5 0.5,0.5c0.276367,0 0.5,-0.223633 0.5,-0.5v-2.5h2v5.5c0,0.276367 0.223633,0.5 0.5,0.5c0.276367,0 0.5,-0.223633 0.5,-0.5v-5.5h1v2.5c0,0.276367 0.223633,0.5 0.5,0.5c0.276367,0 0.5,-0.223633 0.5,-0.5v-2.5h2v2.5c0,0.276367 0.223633,0.5 0.5,0.5c0.276367,0 0.5,-0.223633 0.5,-0.5v-2.5h1v5.5c0,0.276367 0.223633,0.5 0.5,0.5c0.276367,0 0.5,-0.223633 0.5,-0.5v-5.5h2.5c0.276367,0 0.5,-0.223633 0.5,-0.5c0,-0.276367 -0.223633,-0.5 -0.5,-0.5Zm-1.5,-8h-1.5c-0.276367,0 -0.5,0.223633 -0.5,0.5c0,0.276367 0.223633,0.5 0.5,0.5h1.5c0.551758,0 1,0.44873 1,1v1.5c0,0.276367 0.223633,0.5 0.5,0.5c0.276367,0 0.5,-0.223633 0.5,-0.5v-1.5c0,-1.10303 -0.897461,-2 -2,-2Zm-6.5,13c-0.276367,0 -0.5,0.223633 -0.5,0.5v1c0,0.276367 0.223633,0.5 0.5,0.5c0.276367,0 0.5,-0.223633 0.5,-0.5v-1c0,-0.276367 -0.223633,-0.5 -0.5,-0.5Zm8,1c-0.276367,0 -0.5,0.223633 -0.5,0.5v1.5c0,0.55127 -0.448242,1 -1,1h-1.5c-0.276367,0 -0.5,0.223633 -0.5,0.5c0,0.276367 0.223633,0.5 0.5,0.5h1.5c1.10254,0 2,-0.896973 2,-2v-1.5c0,-0.276367 -0.223633,-0.5 -0.5,-0.5Zm-5,-1c-0.276367,0 -0.5,0.223633 -0.5,0.5v1c0,0.276367 0.223633,0.5 0.5,0.5c0.276367,0 0.5,-0.223633 0.5,-0.5v-1c0,-0.276367 -0.223633,-0.5 -0.5,-0.5Z" fill="url(#a)"></path>
</svg>