<?xml version="1.0" encoding="iso-8859-1"?>
<svg version="1.1" id="Layer_1" xmlns="http://www.w3.org/2000/svg" xmlns:xlink="http://www.w3.org/1999/xlink" x="0px" y="0px"
	 viewBox="0 0 24 24" enable-background="new 0 0 24 24" xml:space="preserve">
<g>
	<path fill="#303C42" d="M23.1923828,13.8603516C23.5712891,13.3256836,24,12.7197266,24,12
		s-0.4287109-1.3256836-0.8076172-1.8603516c-0.2480469-0.3510742-0.4833984-0.6826172-0.5644531-0.9873047
		c-0.0878906-0.3266602-0.0498047-0.7451172-0.0107422-1.1879883c0.0605469-0.671875,0.1230469-1.3666992-0.2236328-1.9658203
		c-0.3525391-0.6083984-1.0195313-0.9160156-1.6083984-1.1870117c-0.3984375-0.184082-0.7744141-0.3574219-1.0068359-0.5893555
		c-0.2324219-0.2324219-0.40625-0.6088867-0.5898438-1.0078125c-0.2714844-0.5883789-0.5791016-1.2558594-1.1865234-1.6074219
		c-0.5986328-0.3461914-1.2929688-0.2841797-1.9667969-0.2246094c-0.4433594,0.0400391-0.8613281,0.0766602-1.1875-0.0097656
		c-0.3046875-0.081543-0.6357422-0.3164063-0.9873047-0.5649414C13.3261719,0.4291992,12.7197266,0,12,0
		s-1.3261719,0.4291992-1.8603516,0.8076172C9.7880859,1.0561523,9.4570313,1.2910156,9.1523438,1.3725586
		c-0.3271484,0.0874023-0.7451172,0.0493164-1.1875,0.0097656c-0.6708984-0.059082-1.3671875-0.1225586-1.9658203,0.2241211
		c-0.6083984,0.3515625-0.9160156,1.019043-1.1875,1.6074219C4.6279297,3.612793,4.4541016,3.9897461,4.2216797,4.2216797
		S3.6132813,4.6274414,3.2138672,4.8115234C2.6259766,5.0825195,1.9589844,5.3901367,1.6064453,5.9985352
		C1.2597656,6.597168,1.3222656,7.2924805,1.3828125,7.9643555c0.0390625,0.4428711,0.0771484,0.8613281-0.0107422,1.1875
		c-0.0810547,0.3051758-0.3164063,0.6367188-0.5644531,0.987793C0.4287109,10.6743164,0,11.2802734,0,12
		s0.4287109,1.3256836,0.8076172,1.8603516c0.2480469,0.3510742,0.4833984,0.6826172,0.5644531,0.9873047
		c0.0878906,0.3266602,0.0498047,0.7451172,0.0107422,1.1879883c-0.0605469,0.671875-0.1230469,1.3666992,0.2236328,1.9658203
		c0.3525391,0.6083984,1.0195313,0.9160156,1.6083984,1.1870117c0.3984375,0.184082,0.7744141,0.3574219,1.0068359,0.5893555
		c0.2324219,0.2324219,0.40625,0.6088867,0.5898438,1.0078125c0.2714844,0.5883789,0.5791016,1.2558594,1.1865234,1.6074219
		c0.5986328,0.3461914,1.2929688,0.2841797,1.9667969,0.2246094c0.4433594-0.0400391,0.8613281-0.0771484,1.1875,0.0097656
		c0.3046875,0.081543,0.6357422,0.3164063,0.9873047,0.5649414C10.6738281,23.5708008,11.2802734,24,12,24
		s1.3261719-0.4291992,1.8603516-0.8076172c0.3515625-0.2485352,0.6826172-0.4833984,0.9873047-0.5649414
		c0.3271484-0.0874023,0.7451172-0.0493164,1.1875-0.0097656c0.6728516,0.0605469,1.3681641,0.1230469,1.9658203-0.2241211
		c0.6083984-0.3515625,0.9160156-1.019043,1.1875-1.6074219c0.1835938-0.3989258,0.3574219-0.7758789,0.5898438-1.0078125
		s0.6083984-0.4057617,1.0078125-0.5898438c0.5878906-0.2709961,1.2548828-0.5786133,1.6074219-1.1870117
		c0.3466797-0.5986328,0.2841797-1.2939453,0.2236328-1.9658203c-0.0390625-0.4428711-0.0771484-0.8613281,0.0107422-1.1875
		C22.7089844,14.5429688,22.9443359,14.2114258,23.1923828,13.8603516z"/>
	<path fill="#7CB342" d="M22.3759766,13.2822266c-0.2880859,0.4077148-0.5869141,0.8295898-0.7148438,1.3076172
		c-0.1328125,0.4975586-0.0849609,1.0249023-0.0400391,1.5351563c0.0488281,0.5405273,0.0947266,1.0512695-0.0927734,1.3759766
		c-0.1933594,0.3334961-0.6630859,0.550293-1.1611328,0.7797852c-0.4609375,0.2124023-0.9375,0.4321289-1.2958984,0.7905273
		s-0.578125,0.8349609-0.7910156,1.2963867C18.0507813,20.8652344,17.8339844,21.3349609,17.5,21.5283203
		c-0.3222656,0.1884766-0.8339844,0.1425781-1.3759766,0.0932617c-0.5078125-0.0454102-1.0371094-0.09375-1.5341797,0.0400391
		c-0.4785156,0.1279297-0.8994141,0.4262695-1.3076172,0.7148438C12.8300781,22.6972656,12.4013672,23,12,23
		s-0.8300781-0.3027344-1.2822266-0.6235352c-0.4082031-0.2885742-0.8291016-0.5869141-1.3076172-0.7148438
		c-0.2441406-0.0654297-0.4951172-0.0869141-0.7470703-0.0869141c-0.2626953,0-0.5273438,0.0234375-0.7880859,0.046875
		c-0.5419922,0.0483398-1.0527344,0.0927734-1.3759766-0.09375c-0.3330078-0.1933594-0.5498047-0.6630859-0.7792969-1.1606445
		c-0.2128906-0.4614258-0.4326172-0.9379883-0.7910156-1.2963867s-0.8349609-0.578125-1.2958984-0.7900391
		c-0.4970703-0.2294922-0.9677734-0.4462891-1.1611328-0.7797852c-0.1875-0.3251953-0.1416016-0.8354492-0.0927734-1.3759766
		c0.0449219-0.5102539,0.0927734-1.0375977-0.0400391-1.5356445c-0.1279297-0.4775391-0.4267578-0.8994141-0.7148438-1.3071289
		C1.3027344,12.8295898,1,12.4013672,1,12s0.3027344-0.8295898,0.6240234-1.2822266
		c0.2880859-0.4077148,0.5869141-0.8295898,0.7148438-1.3076172C2.4716797,8.9125977,2.4238281,8.3852539,2.3789063,7.875
		C2.3300781,7.3344727,2.2841797,6.8237305,2.4716797,6.4990234c0.1933594-0.3334961,0.6630859-0.550293,1.1611328-0.7797852
		c0.4609375-0.2124023,0.9375-0.4321289,1.2958984-0.7905273S5.5068359,4.09375,5.7197266,3.6323242
		C5.9492188,3.1347656,6.1660156,2.6650391,6.5,2.4716797C6.8232422,2.2836914,7.3330078,2.3295898,7.8759766,2.378418
		c0.5087891,0.0454102,1.0371094,0.0932617,1.5341797-0.0400391c0.4785156-0.1279297,0.8994141-0.4262695,1.3076172-0.7148438
		C11.1699219,1.3027344,11.5986328,1,12,1s0.8300781,0.3027344,1.2822266,0.6235352
		c0.4082031,0.2885742,0.8291016,0.5869141,1.3076172,0.7148438C15.0878906,2.4716797,15.6142578,2.4243164,16.125,2.378418
		c0.5410156-0.0483398,1.0517578-0.0947266,1.3759766,0.09375c0.3330078,0.1933594,0.5498047,0.6630859,0.7792969,1.1606445
		c0.2128906,0.4614258,0.4326172,0.9379883,0.7910156,1.2963867s0.8349609,0.578125,1.2958984,0.7900391
		c0.4970703,0.2294922,0.9677734,0.4462891,1.1611328,0.7797852c0.1875,0.3251953,0.1416016,0.8354492,0.0927734,1.3759766
		c-0.0449219,0.5102539-0.0927734,1.0375977,0.0400391,1.5356445c0.1279297,0.4775391,0.4267578,0.8994141,0.7148438,1.3071289
		C22.6972656,11.1704102,23,11.5986328,23,12S22.6972656,12.8295898,22.3759766,13.2822266z"/>
	<path opacity="0.2" fill="#FFFFFF" d="M7.7492676,21.527832c-0.2573242-0.1933594-0.4248657-0.6630859-0.6022339-1.1606445
		c-0.1644897-0.4614258-0.3342896-0.9379883-0.6112061-1.2963867c-0.2769775-0.3583984-0.6452026-0.578125-1.0014038-0.7900391
		c-0.3840942-0.2294922-0.7478027-0.4462891-0.8972168-0.7797852C4.4923096,17.1757813,4.527771,16.6655273,4.5654907,16.125
		c0.034729-0.5102539,0.0717163-1.0375977-0.0308838-1.5356445c-0.098877-0.4775391-0.3297729-0.8994141-0.5524292-1.3071289
		C3.7339478,12.8295898,3.5,12.4013672,3.5,12s0.2339478-0.8295898,0.4821777-1.2822266
		C4.204834,10.3100586,4.43573,9.8881836,4.5346069,9.4101563C4.637207,8.9125977,4.6002197,8.3852539,4.5654907,7.875
		C4.527771,7.3344727,4.4923096,6.8237305,4.637207,6.4990234c0.1494141-0.3334961,0.5123901-0.550293,0.8972168-0.7797852
		C5.890625,5.5068359,6.2588501,5.2871094,6.5358276,4.9287109C6.8127441,4.5703125,6.9825439,4.09375,7.1470337,3.6323242
		C7.3244019,3.1347656,7.4919434,2.6650391,7.75,2.4716797C7.8046875,2.430481,7.8688965,2.404541,7.9362183,2.3833618
		C7.9161987,2.3815918,7.8959351,2.380188,7.8759766,2.378418C7.3330078,2.3295898,6.8232422,2.2836914,6.5,2.4716797
		C6.1660156,2.6650391,5.9492188,3.1347656,5.7197266,3.6323242C5.5068359,4.09375,5.2871094,4.5703125,4.9287109,4.9287109
		S4.09375,5.5068359,3.6328125,5.7192383C3.1347656,5.9487305,2.6650391,6.1655273,2.4716797,6.4990234
		C2.2841797,6.8237305,2.3300781,7.3344727,2.3789063,7.875c0.0449219,0.5102539,0.0927734,1.0375977-0.0400391,1.5351563
		c-0.1279297,0.4780273-0.4267578,0.8999023-0.7148438,1.3076172C1.3027344,11.1704102,1,11.5986328,1,12
		s0.3027344,0.8295898,0.6240234,1.2822266c0.2880859,0.4077148,0.5869141,0.8295898,0.7148438,1.3071289
		C2.4716797,15.0874023,2.4238281,15.6147461,2.3789063,16.125c-0.0488281,0.5405273-0.0947266,1.0507813,0.0927734,1.3759766
		c0.1933594,0.3334961,0.6640625,0.550293,1.1611328,0.7797852c0.4609375,0.2119141,0.9375,0.4316406,1.2958984,0.7900391
		s0.578125,0.8349609,0.7910156,1.2963867c0.2294922,0.4975586,0.4462891,0.9672852,0.7792969,1.1606445
		c0.3232422,0.1865234,0.8339844,0.1420898,1.3759766,0.09375c0.0215454-0.0019531,0.0435181-0.0019531,0.0650635-0.0038452
		C7.8707886,21.5965576,7.8052979,21.5697021,7.7492676,21.527832z"/>
	<path opacity="0.1" fill="#010101" d="M22.3759766,13.2822266C22.6972656,12.8295898,23,12.4013672,23,12
		s-0.3027344-0.8295898-0.6240234-1.2822266c-0.2880859-0.4077148-0.5869141-0.8295898-0.7148438-1.3071289
		C21.5283203,8.9125977,21.5761719,8.3852539,21.6210938,7.875c0.0488281-0.5405273,0.0947266-1.0507813-0.0927734-1.3759766
		c-0.1933594-0.3334961-0.6640625-0.550293-1.1611328-0.7797852c-0.4609375-0.2119141-0.9375-0.4316406-1.2958984-0.7900391
		s-0.578125-0.8349609-0.7910156-1.2963867c-0.2294922-0.4975586-0.4462891-0.9672852-0.7792969-1.1606445
		C17.1767578,2.2836914,16.6660156,2.3300781,16.125,2.378418c-0.0203247,0.0018311-0.0410156,0.0032349-0.0614014,0.0050659
		c0.067627,0.0211792,0.1321411,0.0473022,0.1871338,0.0886841c0.2573242,0.1933594,0.4248657,0.6630859,0.6022339,1.1606445
		c0.1644897,0.4614258,0.3342896,0.9379883,0.6112061,1.2963867c0.2769775,0.3583984,0.6452026,0.578125,1.0014038,0.7900391
		c0.3840942,0.2294922,0.7478027,0.4462891,0.8972168,0.7797852C19.5076904,6.8242188,19.472229,7.3344727,19.4345093,7.875
		c-0.034729,0.5102539-0.0717163,1.0375977,0.0308838,1.5356445c0.098877,0.4775391,0.3297729,0.8994141,0.5524292,1.3071289
		C20.2660522,11.1704102,20.5,11.5986328,20.5,12s-0.2339478,0.8295898-0.4821777,1.2822266
		c-0.2226563,0.4077148-0.4535522,0.8295898-0.5524292,1.3076172c-0.1026001,0.4975586-0.0656128,1.0249023-0.0308838,1.5351563
		c0.0377197,0.5405273,0.0731812,1.0512695-0.0717163,1.3759766c-0.1494141,0.3334961-0.5123901,0.550293-0.8972168,0.7797852
		c-0.3562012,0.2124023-0.7244263,0.4321289-1.0014038,0.7905273c-0.2769165,0.3583984-0.4467163,0.8349609-0.6112061,1.2963867
		c-0.1773682,0.4975586-0.3449097,0.9672852-0.6029663,1.1606445c-0.0544434,0.0411987-0.1184692,0.0670776-0.1856079,0.0883179
		c0.0197754,0.00177,0.039917,0.0031738,0.0596313,0.0049438c0.5419922,0.0493164,1.0537109,0.0952148,1.3759766-0.0932617
		c0.3339844-0.1933594,0.5507813-0.6630859,0.7802734-1.1606445c0.2128906-0.4614258,0.4326172-0.9379883,0.7910156-1.2963867
		s0.8349609-0.578125,1.2958984-0.7905273c0.4980469-0.2294922,0.9677734-0.4462891,1.1611328-0.7797852
		c0.1875-0.324707,0.1416016-0.8354492,0.0927734-1.3759766c-0.0449219-0.5102539-0.0927734-1.0375977,0.0400391-1.5351563
		C21.7890625,14.1118164,22.0878906,13.6899414,22.3759766,13.2822266z"/>
	<path fill="#303C42" d="M14.8232422,14.234375c-0.1943359-0.1777344-0.3896484-0.3544922-0.5517578-0.5512695
		c-0.0390625-0.0507813-0.1064453-0.2392578-0.1552734-0.3764648C13.8896484,12.675293,13.4677734,11.5,12,11.5
		s-1.8896484,1.175293-2.1162109,1.8066406c-0.0488281,0.137207-0.1162109,0.3256836-0.1552734,0.3759766
		c-0.1621094,0.1972656-0.3574219,0.3740234-0.5517578,0.5517578C8.6318359,14.734375,8.0136719,15.3007813,8,16.2431641
		C7.9931641,16.75,8.1503906,17.1816406,8.4560547,17.4907227C8.7841797,17.8237305,9.2646484,18,9.8457031,18
		c0.6513672,0,1.0576172-0.2167969,1.3837891-0.390625C11.4951172,17.4677734,11.6865234,17.3652344,12,17.3652344
		c0.3124876,0,0.5048828,0.1025391,0.7705078,0.2441406C13.0966797,17.7832031,13.5029297,18,14.1533203,18
		c0.5810547,0,1.0625-0.1762695,1.390625-0.5092773C15.8496094,17.1811523,16.0068359,16.75,16,16.2426758
		C15.9863281,15.3007813,15.3681641,14.734375,14.8232422,14.234375z"/>
	<path fill="#6D4D42" d="M14.8320313,16.7885742C14.6601563,16.9633789,14.3681641,17,14.1533203,17
		c-0.4003906,0-0.6269531-0.1206055-0.9121094-0.2729492C12.9228516,16.5576172,12.5624876,16.3652344,12,16.3652344
		c-0.5634766,0-0.9238281,0.1923828-1.2412109,0.3618164C10.4726563,16.8793945,10.2470703,17,9.8457031,17
		c-0.2138672,0-0.5058594-0.0366211-0.6777344-0.2114258C9.0527344,16.6723633,8.9970703,16.4936523,9,16.2573242
		c0.0068359-0.5107422,0.3994141-0.8696289,0.8525391-1.2856445c0.2294922-0.2094727,0.4580078-0.4213867,0.6484375-0.6538086
		c0.1464844-0.1782227,0.2294922-0.4077148,0.3242188-0.6738281C11.0732422,12.953125,11.2890625,12.5,12,12.5
		s0.9267578,0.453125,1.1748047,1.144043c0.0947266,0.2661133,0.1777344,0.4956055,0.3232422,0.6733398
		c0.1914063,0.2329102,0.4199219,0.4448242,0.6494141,0.6542969C14.6005859,15.3876953,14.9931641,15.746582,15,16.2568359
		C15.0029297,16.4936523,14.9472656,16.6723633,14.8320313,16.7885742z"/>
	<path fill="#303C42" d="M16.7861328,10c-0.7822266,0-1.5273438,0.8193359-1.7353516,1.9067383
		C15.0166016,12.0878906,15,12.2626953,15,12.4272461c-0.0009766,0.519043,0.15625,0.9624023,0.4414063,1.2480469
		C15.6533203,13.8876953,15.9208984,14,16.2138672,14c0.7822266,0,1.5273438-0.8193359,1.7353516-1.90625c0,0,0,0,0-0.0004883
		C17.9833984,11.9121094,18,11.7368164,18,11.5712891C18,10.6459961,17.5009766,10,16.7861328,10z"/>
	<path fill="#6D4D42" d="M16.9667969,11.9067383c-0.1259766,0.6572266-0.5585938,1.0961914-0.8173828,1.0620117
		C16.0800781,12.8999023,16,12.7167969,16,12.4282227c0-0.105957,0.0107422-0.2182617,0.0332031-0.3344727
		C16.1582031,11.4360352,16.5693359,11,16.7861328,11C16.875,11,17,11.2172852,17,11.5712891
		C17,11.6772461,16.9892578,11.7900391,16.9667969,11.9067383z"/>
	<path fill="#303C42" d="M13.9335938,10.5c0.9121094,0,1.7978516-0.9492188,2.0175781-2.1611328
		c0.0292969-0.1601563,0.0439453-0.315918,0.0478516-0.4648438c0.0146484-0.605957-0.1621094-1.1303711-0.5-1.4760742
		C15.2451172,6.1376953,14.9228516,6,14.5664063,6c-0.9121094,0-1.7978516,0.9492188-2.0175781,2.1601563
		c-0.0292969,0.1606445-0.0439453,0.3168945-0.0478516,0.4658203c-0.0146484,0.605957,0.1621094,1.1303711,0.5,1.4760742
		C13.2548828,10.3623047,13.5771484,10.5,13.9335938,10.5z"/>
	<path fill="#6D4D42" d="M13.5332031,8.3388672C13.671875,7.5727539,14.1933594,7,14.5664063,7
		c0.0839844,0,0.1533203,0.0302734,0.2167969,0.0957031c0.1435547,0.1474609,0.2236328,0.4287109,0.2158203,0.7539063
		c-0.0019531,0.1000977-0.0126953,0.2036133-0.0322266,0.3105469c0,0.0004883,0,0.0004883,0,0.0004883
		c-0.1689453,0.9394531-0.9023438,1.6000977-1.25,1.2436523c-0.1435547-0.1474609-0.2236328-0.4287109-0.2158203-0.7539063
		C13.5029297,8.550293,13.5136719,8.4467773,13.5332031,8.3388672z"/>
	<path fill="#303C42" d="M9,12.4282227c0-0.1655273-0.0166016-0.340332-0.0507813-0.5219727
		C8.7412109,10.8193359,7.9960938,10,7.2138672,10C6.4990234,10,6,10.6459961,6,11.5712891
		c0,0.1655273,0.0166016,0.3408203,0.0507813,0.5219727c0,0.0004883,0,0.0004883,0,0.0004883
		C6.2587891,13.1806641,7.0039063,14,7.7861328,14c0.2929688,0,0.5605469-0.1123047,0.7724609-0.324707
		C8.84375,13.3896484,9.0009766,12.9462891,9,12.4282227z"/>
	<path fill="#6D4D42" d="M7.7861328,13c-0.2167969,0-0.6269531-0.4360352-0.7529297-1.0932617
		C7.0107422,11.7900391,7,11.6772461,7,11.5712891C7,11.2172852,7.125,11,7.2138672,11
		c0.2167969,0,0.6279297,0.4360352,0.7529297,1.0932617C7.9892578,12.2099609,8,12.3222656,8,12.4291992
		C8,12.7167969,7.9199219,12.8999023,7.7861328,13z"/>
	<path fill="#303C42" d="M10.0664063,10.5c0.3564453,0,0.6787109-0.1376953,0.9326172-0.3979492
		c0.3378906-0.3457031,0.5146484-0.8701172,0.5-1.4750977c-0.0039063-0.1499023-0.0185547-0.3061523-0.0478516-0.4658203
		C11.2314453,6.9492188,10.3457031,6,9.4335938,6C9.0771484,6,8.7548828,6.1376953,8.5009766,6.3979492
		c-0.3378906,0.3457031-0.5146484,0.8701172-0.5,1.4750977c0.0039063,0.1499023,0.0185547,0.3056641,0.0478516,0.4658203
		C8.2685547,9.5507813,9.1542969,10.5,10.0664063,10.5z"/>
	<path fill="#6D4D42" d="M9.2167969,7.0957031C9.2802734,7.0302734,9.3496094,7,9.4335938,7
		c0.3730469,0,0.8945313,0.5727539,1.0332031,1.3398438c0.0195313,0.1069336,0.0302734,0.2104492,0.0322266,0.3115234
		c0.0078125,0.3242188-0.0722656,0.6054688-0.2158203,0.7529297c-0.3466797,0.3549805-1.0800781-0.3046875-1.25-1.2431641
		c0,0,0-0.0004883,0-0.0009766C9.0136719,8.0532227,9.0029297,7.949707,9.0009766,7.8486328
		C8.9931641,7.5244141,9.0732422,7.2431641,9.2167969,7.0957031z"/>
	<linearGradient id="SVGID_1_" gradientUnits="userSpaceOnUse" x1="1.1577519" y1="6.9441767" x2="22.8422489" y2="17.0558243">
		<stop  offset="0" style="stop-color:#FFFFFF;stop-opacity:0.2"/>
		<stop  offset="1" style="stop-color:#FFFFFF;stop-opacity:0"/>
	</linearGradient>
	<path fill="url(#SVGID_1_)" d="M23.1923828,13.8603516C23.5712891,13.3256836,24,12.7197266,24,12
		s-0.4287109-1.3256836-0.8076172-1.8603516c-0.2480469-0.3510742-0.4833984-0.6826172-0.5644531-0.9873047
		c-0.0878906-0.3266602-0.0498047-0.7451172-0.0107422-1.1879883c0.0605469-0.671875,0.1230469-1.3666992-0.2236328-1.9658203
		c-0.3525391-0.6083984-1.0195313-0.9160156-1.6083984-1.1870117c-0.3984375-0.184082-0.7744141-0.3574219-1.0068359-0.5893555
		c-0.2324219-0.2324219-0.40625-0.6088867-0.5898438-1.0078125c-0.2714844-0.5883789-0.5791016-1.2558594-1.1865234-1.6074219
		c-0.5986328-0.3461914-1.2929688-0.2841797-1.9667969-0.2246094c-0.4433594,0.0400391-0.8613281,0.0766602-1.1875-0.0097656
		c-0.3046875-0.081543-0.6357422-0.3164063-0.9873047-0.5649414C13.3261719,0.4291992,12.7197266,0,12,0
		s-1.3261719,0.4291992-1.8603516,0.8076172C9.7880859,1.0561523,9.4570313,1.2910156,9.1523438,1.3725586
		c-0.3271484,0.0874023-0.7451172,0.0493164-1.1875,0.0097656c-0.6708984-0.059082-1.3671875-0.1225586-1.9658203,0.2241211
		c-0.6083984,0.3515625-0.9160156,1.019043-1.1875,1.6074219C4.6279297,3.612793,4.4541016,3.9897461,4.2216797,4.2216797
		S3.6132813,4.6274414,3.2138672,4.8115234C2.6259766,5.0825195,1.9589844,5.3901367,1.6064453,5.9985352
		C1.2597656,6.597168,1.3222656,7.2924805,1.3828125,7.9643555c0.0390625,0.4428711,0.0771484,0.8613281-0.0107422,1.1875
		c-0.0810547,0.3051758-0.3164063,0.6367188-0.5644531,0.987793C0.4287109,10.6743164,0,11.2802734,0,12
		s0.4287109,1.3256836,0.8076172,1.8603516c0.2480469,0.3510742,0.4833984,0.6826172,0.5644531,0.9873047
		c0.0878906,0.3266602,0.0498047,0.7451172,0.0107422,1.1879883c-0.0605469,0.671875-0.1230469,1.3666992,0.2236328,1.9658203
		c0.3525391,0.6083984,1.0195313,0.9160156,1.6083984,1.1870117c0.3984375,0.184082,0.7744141,0.3574219,1.0068359,0.5893555
		c0.2324219,0.2324219,0.40625,0.6088867,0.5898438,1.0078125c0.2714844,0.5883789,0.5791016,1.2558594,1.1865234,1.6074219
		c0.5986328,0.3461914,1.2929688,0.2841797,1.9667969,0.2246094c0.4433594-0.0400391,0.8613281-0.0771484,1.1875,0.0097656
		c0.3046875,0.081543,0.6357422,0.3164063,0.9873047,0.5649414C10.6738281,23.5708008,11.2802734,24,12,24
		s1.3261719-0.4291992,1.8603516-0.8076172c0.3515625-0.2485352,0.6826172-0.4833984,0.9873047-0.5649414
		c0.3271484-0.0874023,0.7451172-0.0493164,1.1875-0.0097656c0.6728516,0.0605469,1.3681641,0.1230469,1.9658203-0.2241211
		c0.6083984-0.3515625,0.9160156-1.019043,1.1875-1.6074219c0.1835938-0.3989258,0.3574219-0.7758789,0.5898438-1.0078125
		s0.6083984-0.4057617,1.0078125-0.5898438c0.5878906-0.2709961,1.2548828-0.5786133,1.6074219-1.1870117
		c0.3466797-0.5986328,0.2841797-1.2939453,0.2236328-1.9658203c-0.0390625-0.4428711-0.0771484-0.8613281,0.0107422-1.1875
		C22.7089844,14.5429688,22.9443359,14.2114258,23.1923828,13.8603516z"/>
</g>
<g>
</g>
<g>
</g>
<g>
</g>
<g>
</g>
<g>
</g>
<g>
</g>
<g>
</g>
<g>
</g>
<g>
</g>
<g>
</g>
<g>
</g>
<g>
</g>
<g>
</g>
<g>
</g>
<g>
</g>
</svg>
